<?xml version="1.0" encoding="utf-8"?>
<svg xmlns="http://www.w3.org/2000/svg" xmlns:xlink="http://www.w3.org/1999/xlink" width="600" height="400" viewBox="0 0 2400 1600">
<defs>
  <clipPath id="clip8000">
    <rect x="0" y="0" width="2000" height="2000"/>
  </clipPath>
</defs>
<defs>
  <clipPath id="clip8001">
    <rect x="0" y="0" width="2400" height="1600"/>
  </clipPath>
</defs>
<polygon clip-path="url(#clip8001)" points="
0,1600 2400,1600 2400,0 0,0 
  " fill="#ffffff" fill-opacity="1"/>
<defs>
  <clipPath id="clip8002">
    <rect x="480" y="0" width="1681" height="1600"/>
  </clipPath>
</defs>
<polygon clip-path="url(#clip8001)" points="
214.919,1503.47 2321.26,1503.47 2321.26,47.2441 214.919,47.2441 
  " fill="#ffffff" fill-opacity="1"/>
<defs>
  <clipPath id="clip8003">
    <rect x="214" y="47" width="2107" height="1457"/>
  </clipPath>
</defs>
<polyline clip-path="url(#clip8003)" style="stroke:#000000; stroke-width:2; stroke-opacity:0.1; fill:none" points="
  273.781,1503.47 273.781,47.2441 
  "/>
<polyline clip-path="url(#clip8003)" style="stroke:#000000; stroke-width:2; stroke-opacity:0.1; fill:none" points="
  715.529,1503.47 715.529,47.2441 
  "/>
<polyline clip-path="url(#clip8003)" style="stroke:#000000; stroke-width:2; stroke-opacity:0.1; fill:none" points="
  1157.28,1503.47 1157.28,47.2441 
  "/>
<polyline clip-path="url(#clip8003)" style="stroke:#000000; stroke-width:2; stroke-opacity:0.1; fill:none" points="
  1599.02,1503.47 1599.02,47.2441 
  "/>
<polyline clip-path="url(#clip8003)" style="stroke:#000000; stroke-width:2; stroke-opacity:0.1; fill:none" points="
  2040.77,1503.47 2040.77,47.2441 
  "/>
<polyline clip-path="url(#clip8003)" style="stroke:#000000; stroke-width:2; stroke-opacity:0.1; fill:none" points="
  214.919,1364.13 2321.26,1364.13 
  "/>
<polyline clip-path="url(#clip8003)" style="stroke:#000000; stroke-width:2; stroke-opacity:0.1; fill:none" points="
  214.919,1118.81 2321.26,1118.81 
  "/>
<polyline clip-path="url(#clip8003)" style="stroke:#000000; stroke-width:2; stroke-opacity:0.1; fill:none" points="
  214.919,873.488 2321.26,873.488 
  "/>
<polyline clip-path="url(#clip8003)" style="stroke:#000000; stroke-width:2; stroke-opacity:0.1; fill:none" points="
  214.919,628.166 2321.26,628.166 
  "/>
<polyline clip-path="url(#clip8003)" style="stroke:#000000; stroke-width:2; stroke-opacity:0.1; fill:none" points="
  214.919,382.844 2321.26,382.844 
  "/>
<polyline clip-path="url(#clip8003)" style="stroke:#000000; stroke-width:2; stroke-opacity:0.1; fill:none" points="
  214.919,137.523 2321.26,137.523 
  "/>
<polyline clip-path="url(#clip8001)" style="stroke:#000000; stroke-width:4; stroke-opacity:1; fill:none" points="
  214.919,1503.47 2321.26,1503.47 
  "/>
<polyline clip-path="url(#clip8001)" style="stroke:#000000; stroke-width:4; stroke-opacity:1; fill:none" points="
  214.919,1503.47 214.919,47.2441 
  "/>
<polyline clip-path="url(#clip8001)" style="stroke:#000000; stroke-width:4; stroke-opacity:1; fill:none" points="
  273.781,1503.47 273.781,1481.63 
  "/>
<polyline clip-path="url(#clip8001)" style="stroke:#000000; stroke-width:4; stroke-opacity:1; fill:none" points="
  715.529,1503.47 715.529,1481.63 
  "/>
<polyline clip-path="url(#clip8001)" style="stroke:#000000; stroke-width:4; stroke-opacity:1; fill:none" points="
  1157.28,1503.47 1157.28,1481.63 
  "/>
<polyline clip-path="url(#clip8001)" style="stroke:#000000; stroke-width:4; stroke-opacity:1; fill:none" points="
  1599.02,1503.47 1599.02,1481.63 
  "/>
<polyline clip-path="url(#clip8001)" style="stroke:#000000; stroke-width:4; stroke-opacity:1; fill:none" points="
  2040.77,1503.47 2040.77,1481.63 
  "/>
<polyline clip-path="url(#clip8001)" style="stroke:#000000; stroke-width:4; stroke-opacity:1; fill:none" points="
  214.919,1364.13 246.514,1364.13 
  "/>
<polyline clip-path="url(#clip8001)" style="stroke:#000000; stroke-width:4; stroke-opacity:1; fill:none" points="
  214.919,1118.81 246.514,1118.81 
  "/>
<polyline clip-path="url(#clip8001)" style="stroke:#000000; stroke-width:4; stroke-opacity:1; fill:none" points="
  214.919,873.488 246.514,873.488 
  "/>
<polyline clip-path="url(#clip8001)" style="stroke:#000000; stroke-width:4; stroke-opacity:1; fill:none" points="
  214.919,628.166 246.514,628.166 
  "/>
<polyline clip-path="url(#clip8001)" style="stroke:#000000; stroke-width:4; stroke-opacity:1; fill:none" points="
  214.919,382.844 246.514,382.844 
  "/>
<polyline clip-path="url(#clip8001)" style="stroke:#000000; stroke-width:4; stroke-opacity:1; fill:none" points="
  214.919,137.523 246.514,137.523 
  "/>
<g clip-path="url(#clip8001)">
<text style="fill:#000000; fill-opacity:1; font-family:Arial,Helvetica Neue,Helvetica,sans-serif; font-size:48px; text-anchor:middle;" transform="rotate(0, 273.781, 1557.47)" x="273.781" y="1557.47">0</text>
</g>
<g clip-path="url(#clip8001)">
<text style="fill:#000000; fill-opacity:1; font-family:Arial,Helvetica Neue,Helvetica,sans-serif; font-size:48px; text-anchor:start;" transform="rotate(0, 650.458, 1578.48)" x="650.458" y="1578.48">1×10</text>
</g>
<g clip-path="url(#clip8001)">
<text style="fill:#000000; fill-opacity:1; font-family:Arial,Helvetica Neue,Helvetica,sans-serif; font-size:38px; text-anchor:start;" transform="rotate(0, 758.855, 1551.07)" x="758.855" y="1551.07">4</text>
</g>
<g clip-path="url(#clip8001)">
<text style="fill:#000000; fill-opacity:1; font-family:Arial,Helvetica Neue,Helvetica,sans-serif; font-size:48px; text-anchor:start;" transform="rotate(0, 1092.21, 1578.48)" x="1092.21" y="1578.48">2×10</text>
</g>
<g clip-path="url(#clip8001)">
<text style="fill:#000000; fill-opacity:1; font-family:Arial,Helvetica Neue,Helvetica,sans-serif; font-size:38px; text-anchor:start;" transform="rotate(0, 1200.6, 1551.07)" x="1200.6" y="1551.07">4</text>
</g>
<g clip-path="url(#clip8001)">
<text style="fill:#000000; fill-opacity:1; font-family:Arial,Helvetica Neue,Helvetica,sans-serif; font-size:48px; text-anchor:start;" transform="rotate(0, 1533.95, 1578.48)" x="1533.95" y="1578.48">3×10</text>
</g>
<g clip-path="url(#clip8001)">
<text style="fill:#000000; fill-opacity:1; font-family:Arial,Helvetica Neue,Helvetica,sans-serif; font-size:38px; text-anchor:start;" transform="rotate(0, 1642.35, 1551.07)" x="1642.35" y="1551.07">4</text>
</g>
<g clip-path="url(#clip8001)">
<text style="fill:#000000; fill-opacity:1; font-family:Arial,Helvetica Neue,Helvetica,sans-serif; font-size:48px; text-anchor:start;" transform="rotate(0, 1975.7, 1578.48)" x="1975.7" y="1578.48">4×10</text>
</g>
<g clip-path="url(#clip8001)">
<text style="fill:#000000; fill-opacity:1; font-family:Arial,Helvetica Neue,Helvetica,sans-serif; font-size:38px; text-anchor:start;" transform="rotate(0, 2084.1, 1551.07)" x="2084.1" y="1551.07">4</text>
</g>
<g clip-path="url(#clip8001)">
<text style="fill:#000000; fill-opacity:1; font-family:Arial,Helvetica Neue,Helvetica,sans-serif; font-size:48px; text-anchor:end;" transform="rotate(0, 190.919, 1381.63)" x="190.919" y="1381.63">14.50</text>
</g>
<g clip-path="url(#clip8001)">
<text style="fill:#000000; fill-opacity:1; font-family:Arial,Helvetica Neue,Helvetica,sans-serif; font-size:48px; text-anchor:end;" transform="rotate(0, 190.919, 1136.31)" x="190.919" y="1136.31">14.75</text>
</g>
<g clip-path="url(#clip8001)">
<text style="fill:#000000; fill-opacity:1; font-family:Arial,Helvetica Neue,Helvetica,sans-serif; font-size:48px; text-anchor:end;" transform="rotate(0, 190.919, 890.988)" x="190.919" y="890.988">15.00</text>
</g>
<g clip-path="url(#clip8001)">
<text style="fill:#000000; fill-opacity:1; font-family:Arial,Helvetica Neue,Helvetica,sans-serif; font-size:48px; text-anchor:end;" transform="rotate(0, 190.919, 645.666)" x="190.919" y="645.666">15.25</text>
</g>
<g clip-path="url(#clip8001)">
<text style="fill:#000000; fill-opacity:1; font-family:Arial,Helvetica Neue,Helvetica,sans-serif; font-size:48px; text-anchor:end;" transform="rotate(0, 190.919, 400.344)" x="190.919" y="400.344">15.50</text>
</g>
<g clip-path="url(#clip8001)">
<text style="fill:#000000; fill-opacity:1; font-family:Arial,Helvetica Neue,Helvetica,sans-serif; font-size:48px; text-anchor:end;" transform="rotate(0, 190.919, 155.023)" x="190.919" y="155.023">15.75</text>
</g>
<polyline clip-path="url(#clip8003)" style="stroke:#009af9; stroke-width:4; stroke-opacity:1; fill:none" points="
  2261.65,1462.26 1157.28,1364.13 936.403,1069.75 494.655,677.231 291.451,382.844 274.532,88.4582 
  "/>
<circle clip-path="url(#clip8003)" style="fill:#000000; stroke:none; fill-opacity:1" cx="2261.65" cy="1462.26" r="18"/>
<circle clip-path="url(#clip8003)" style="fill:#e26f46; stroke:none; fill-opacity:1" cx="2261.65" cy="1462.26" r="14"/>
<circle clip-path="url(#clip8003)" style="fill:#000000; stroke:none; fill-opacity:1" cx="1157.28" cy="1364.13" r="18"/>
<circle clip-path="url(#clip8003)" style="fill:#e26f46; stroke:none; fill-opacity:1" cx="1157.28" cy="1364.13" r="14"/>
<circle clip-path="url(#clip8003)" style="fill:#000000; stroke:none; fill-opacity:1" cx="936.403" cy="1069.75" r="18"/>
<circle clip-path="url(#clip8003)" style="fill:#e26f46; stroke:none; fill-opacity:1" cx="936.403" cy="1069.75" r="14"/>
<circle clip-path="url(#clip8003)" style="fill:#000000; stroke:none; fill-opacity:1" cx="494.655" cy="677.231" r="18"/>
<circle clip-path="url(#clip8003)" style="fill:#e26f46; stroke:none; fill-opacity:1" cx="494.655" cy="677.231" r="14"/>
<circle clip-path="url(#clip8003)" style="fill:#000000; stroke:none; fill-opacity:1" cx="291.451" cy="382.844" r="18"/>
<circle clip-path="url(#clip8003)" style="fill:#e26f46; stroke:none; fill-opacity:1" cx="291.451" cy="382.844" r="14"/>
<circle clip-path="url(#clip8003)" style="fill:#000000; stroke:none; fill-opacity:1" cx="274.532" cy="88.4582" r="18"/>
<circle clip-path="url(#clip8003)" style="fill:#e26f46; stroke:none; fill-opacity:1" cx="274.532" cy="88.4582" r="14"/>
<polygon clip-path="url(#clip8001)" points="
1880.84,312.204 2249.26,312.204 2249.26,130.764 1880.84,130.764 
  " fill="#ffffff" fill-opacity="1"/>
<polyline clip-path="url(#clip8001)" style="stroke:#000000; stroke-width:4; stroke-opacity:1; fill:none" points="
  1880.84,312.204 2249.26,312.204 2249.26,130.764 1880.84,130.764 1880.84,312.204 
  "/>
<polyline clip-path="url(#clip8001)" style="stroke:#009af9; stroke-width:4; stroke-opacity:1; fill:none" points="
  1904.84,191.244 2048.84,191.244 
  "/>
<g clip-path="url(#clip8001)">
<text style="fill:#000000; fill-opacity:1; font-family:Arial,Helvetica Neue,Helvetica,sans-serif; font-size:48px; text-anchor:start;" transform="rotate(0, 2072.84, 208.744)" x="2072.84" y="208.744">line</text>
</g>
<circle clip-path="url(#clip8001)" style="fill:#000000; stroke:none; fill-opacity:1" cx="1988.84" cy="251.724" r="25"/>
<circle clip-path="url(#clip8001)" style="fill:#e26f46; stroke:none; fill-opacity:1" cx="1988.84" cy="251.724" r="21"/>
<g clip-path="url(#clip8001)">
<text style="fill:#000000; fill-opacity:1; font-family:Arial,Helvetica Neue,Helvetica,sans-serif; font-size:48px; text-anchor:start;" transform="rotate(0, 2072.84, 269.224)" x="2072.84" y="269.224">points</text>
</g>
</svg>
