<?xml version="1.0" encoding="UTF-8"?>
<!DOCTYPE svg PUBLIC "-//W3C//DTD SVG 1.1//EN"
 "http://www.w3.org/Graphics/SVG/1.1/DTD/svg11.dtd">
<svg xmlns="http://www.w3.org/2000/svg" version="1.1"
     width="180.0mm" height="24.999999999999996mm"
     shape-rendering="crispEdges">
<rect x="0.0mm" y="0.0mm"
      width="1.8mm" height="23.999999999999996mm"
      fill="#000000" stroke="none" />
<rect x="1.8mm" y="0.0mm"
      width="1.8mm" height="23.999999999999996mm"
      fill="#FFFF62" stroke="none" />
<rect x="3.6mm" y="0.0mm"
      width="1.8mm" height="23.999999999999996mm"
      fill="#FF9FFF" stroke="none" />
<rect x="5.4mm" y="0.0mm"
      width="1.8mm" height="23.999999999999996mm"
      fill="#00D6FF" stroke="none" />
<rect x="7.2mm" y="0.0mm"
      width="1.8mm" height="23.999999999999996mm"
      fill="#D74400" stroke="none" />
<rect x="9.0mm" y="0.0mm"
      width="1.8mm" height="23.999999999999996mm"
      fill="#008029" stroke="none" />
<rect x="10.8mm" y="0.0mm"
      width="1.8mm" height="23.999999999999996mm"
      fill="#005FD5" stroke="none" />
<rect x="12.6mm" y="0.0mm"
      width="1.8mm" height="23.999999999999996mm"
      fill="#930068" stroke="none" />
<rect x="14.4mm" y="0.0mm"
      width="1.8mm" height="23.999999999999996mm"
      fill="#FFCBB5" stroke="none" />
<rect x="16.2mm" y="0.0mm"
      width="1.8mm" height="23.999999999999996mm"
      fill="#A78600" stroke="none" />
<rect x="18.0mm" y="0.0mm"
      width="1.8mm" height="23.999999999999996mm"
      fill="#00FFC5" stroke="none" />
<rect x="19.8mm" y="0.0mm"
      width="1.8mm" height="23.999999999999996mm"
      fill="#007E86" stroke="none" />
<rect x="21.6mm" y="0.0mm"
      width="1.8mm" height="23.999999999999996mm"
      fill="#534200" stroke="none" />
<rect x="23.400000000000002mm" y="0.0mm"
      width="1.8mm" height="23.999999999999996mm"
      fill="#8C8793" stroke="none" />
<rect x="25.2mm" y="0.0mm"
      width="1.8mm" height="23.999999999999996mm"
      fill="#680000" stroke="none" />
<rect x="27.0mm" y="0.0mm"
      width="1.8mm" height="23.999999999999996mm"
      fill="#00005A" stroke="none" />
<rect x="28.8mm" y="0.0mm"
      width="1.8mm" height="23.999999999999996mm"
      fill="#FF2C6F" stroke="none" />
<rect x="30.6mm" y="0.0mm"
      width="1.8mm" height="23.999999999999996mm"
      fill="#F7FFF6" stroke="none" />
<rect x="32.4mm" y="0.0mm"
      width="1.8mm" height="23.999999999999996mm"
      fill="#003D25" stroke="none" />
<rect x="34.2mm" y="0.0mm"
      width="1.8mm" height="23.999999999999996mm"
      fill="#91ABFF" stroke="none" />
<rect x="36.0mm" y="0.0mm"
      width="1.8mm" height="23.999999999999996mm"
      fill="#A1B684" stroke="none" />
<rect x="37.800000000000004mm" y="0.0mm"
      width="1.8mm" height="23.999999999999996mm"
      fill="#605051" stroke="none" />
<rect x="39.6mm" y="0.0mm"
      width="1.8mm" height="23.999999999999996mm"
      fill="#C129E2" stroke="none" />
<rect x="41.4mm" y="0.0mm"
      width="1.8mm" height="23.999999999999996mm"
      fill="#FF8E1E" stroke="none" />
<rect x="43.2mm" y="0.0mm"
      width="1.8mm" height="23.999999999999996mm"
      fill="#003F51" stroke="none" />
<rect x="45.0mm" y="0.0mm"
      width="1.8mm" height="23.999999999999996mm"
      fill="#797860" stroke="none" />
<rect x="46.800000000000004mm" y="0.0mm"
      width="1.8mm" height="23.999999999999996mm"
      fill="#2E001C" stroke="none" />
<rect x="48.6mm" y="0.0mm"
      width="1.8mm" height="23.999999999999996mm"
      fill="#01AF99" stroke="none" />
<rect x="50.4mm" y="0.0mm"
      width="1.8mm" height="23.999999999999996mm"
      fill="#FFE6FF" stroke="none" />
<rect x="52.2mm" y="0.0mm"
      width="1.8mm" height="23.999999999999996mm"
      fill="#77DA00" stroke="none" />
<rect x="54.0mm" y="0.0mm"
      width="1.8mm" height="23.999999999999996mm"
      fill="#5B4B83" stroke="none" />
<rect x="55.800000000000004mm" y="0.0mm"
      width="1.8mm" height="23.999999999999996mm"
      fill="#0094CF" stroke="none" />
<rect x="57.6mm" y="0.0mm"
      width="1.8mm" height="23.999999999999996mm"
      fill="#B8739F" stroke="none" />
<rect x="59.4mm" y="0.0mm"
      width="1.8mm" height="23.999999999999996mm"
      fill="#FF8269" stroke="none" />
<rect x="61.2mm" y="0.0mm"
      width="1.8mm" height="23.999999999999996mm"
      fill="#FFBE05" stroke="none" />
<rect x="63.0mm" y="0.0mm"
      width="1.8mm" height="23.999999999999996mm"
      fill="#C20030" stroke="none" />
<rect x="64.8mm" y="0.0mm"
      width="1.8mm" height="23.999999999999996mm"
      fill="#A9806C" stroke="none" />
<rect x="66.60000000000001mm" y="0.0mm"
      width="1.8mm" height="23.999999999999996mm"
      fill="#955600" stroke="none" />
<rect x="68.4mm" y="0.0mm"
      width="1.8mm" height="23.999999999999996mm"
      fill="#9FB3B2" stroke="none" />
<rect x="70.2mm" y="0.0mm"
      width="1.8mm" height="23.999999999999996mm"
      fill="#789500" stroke="none" />
<rect x="72.0mm" y="0.0mm"
      width="1.8mm" height="23.999999999999996mm"
      fill="#FF9BB1" stroke="none" />
<rect x="73.8mm" y="0.0mm"
      width="1.8mm" height="23.999999999999996mm"
      fill="#A8FFFD" stroke="none" />
<rect x="75.60000000000001mm" y="0.0mm"
      width="1.8mm" height="23.999999999999996mm"
      fill="#2023C8" stroke="none" />
<rect x="77.4mm" y="0.0mm"
      width="1.8mm" height="23.999999999999996mm"
      fill="#937BD2" stroke="none" />
<rect x="79.2mm" y="0.0mm"
      width="1.8mm" height="23.999999999999996mm"
      fill="#FFE8B4" stroke="none" />
<rect x="81.0mm" y="0.0mm"
      width="1.8mm" height="23.999999999999996mm"
      fill="#4A5750" stroke="none" />
<rect x="82.8mm" y="0.0mm"
      width="1.8mm" height="23.999999999999996mm"
      fill="#636B05" stroke="none" />
<rect x="84.60000000000001mm" y="0.0mm"
      width="1.8mm" height="23.999999999999996mm"
      fill="#2C1300" stroke="none" />
<rect x="86.4mm" y="0.0mm"
      width="1.8mm" height="23.999999999999996mm"
      fill="#00BC62" stroke="none" />
<rect x="88.2mm" y="0.0mm"
      width="1.8mm" height="23.999999999999996mm"
      fill="#CFE6FF" stroke="none" />
<rect x="90.0mm" y="0.0mm"
      width="1.8mm" height="23.999999999999996mm"
      fill="#915266" stroke="none" />
<rect x="91.8mm" y="0.0mm"
      width="1.8mm" height="23.999999999999996mm"
      fill="#C9F6C9" stroke="none" />
<rect x="93.60000000000001mm" y="0.0mm"
      width="1.8mm" height="23.999999999999996mm"
      fill="#B6A9CF" stroke="none" />
<rect x="95.4mm" y="0.0mm"
      width="1.8mm" height="23.999999999999996mm"
      fill="#2E3248" stroke="none" />
<rect x="97.2mm" y="0.0mm"
      width="1.8mm" height="23.999999999999996mm"
      fill="#BBACA5" stroke="none" />
<rect x="99.0mm" y="0.0mm"
      width="1.8mm" height="23.999999999999996mm"
      fill="#006B50" stroke="none" />
<rect x="100.8mm" y="0.0mm"
      width="1.8mm" height="23.999999999999996mm"
      fill="#383329" stroke="none" />
<rect x="102.60000000000001mm" y="0.0mm"
      width="1.8mm" height="23.999999999999996mm"
      fill="#C5AD6D" stroke="none" />
<rect x="104.4mm" y="0.0mm"
      width="1.8mm" height="23.999999999999996mm"
      fill="#005500" stroke="none" />
<rect x="106.2mm" y="0.0mm"
      width="1.8mm" height="23.999999999999996mm"
      fill="#687A7E" stroke="none" />
<rect x="108.0mm" y="0.0mm"
      width="1.8mm" height="23.999999999999996mm"
      fill="#FF4ED2" stroke="none" />
<rect x="109.8mm" y="0.0mm"
      width="1.8mm" height="23.999999999999996mm"
      fill="#9A2F00" stroke="none" />
<rect x="111.60000000000001mm" y="0.0mm"
      width="1.8mm" height="23.999999999999996mm"
      fill="#501D5B" stroke="none" />
<rect x="113.4mm" y="0.0mm"
      width="1.8mm" height="23.999999999999996mm"
      fill="#0E1A00" stroke="none" />
<rect x="115.2mm" y="0.0mm"
      width="1.8mm" height="23.999999999999996mm"
      fill="#0B001F" stroke="none" />
<rect x="117.0mm" y="0.0mm"
      width="1.8mm" height="23.999999999999996mm"
      fill="#49A9B8" stroke="none" />
<rect x="118.8mm" y="0.0mm"
      width="1.8mm" height="23.999999999999996mm"
      fill="#8200A5" stroke="none" />
<rect x="120.60000000000001mm" y="0.0mm"
      width="1.8mm" height="23.999999999999996mm"
      fill="#609663" stroke="none" />
<rect x="122.4mm" y="0.0mm"
      width="1.8mm" height="23.999999999999996mm"
      fill="#00397F" stroke="none" />
<rect x="124.2mm" y="0.0mm"
      width="1.8mm" height="23.999999999999996mm"
      fill="#8E0037" stroke="none" />
<rect x="126.0mm" y="0.0mm"
      width="1.8mm" height="23.999999999999996mm"
      fill="#643820" stroke="none" />
<rect x="127.8mm" y="0.0mm"
      width="1.8mm" height="23.999999999999996mm"
      fill="#7558FF" stroke="none" />
<rect x="129.6mm" y="0.0mm"
      width="1.8mm" height="23.999999999999996mm"
      fill="#006787" stroke="none" />
<rect x="131.4mm" y="0.0mm"
      width="1.8mm" height="23.999999999999996mm"
      fill="#B75D4E" stroke="none" />
<rect x="133.20000000000002mm" y="0.0mm"
      width="1.8mm" height="23.999999999999996mm"
      fill="#C3C958" stroke="none" />
<rect x="135.0mm" y="0.0mm"
      width="1.8mm" height="23.999999999999996mm"
      fill="#D00068" stroke="none" />
<rect x="136.8mm" y="0.0mm"
      width="1.8mm" height="23.999999999999996mm"
      fill="#51272B" stroke="none" />
<rect x="138.6mm" y="0.0mm"
      width="1.8mm" height="23.999999999999996mm"
      fill="#7B6044" stroke="none" />
<rect x="140.4mm" y="0.0mm"
      width="1.8mm" height="23.999999999999996mm"
      fill="#2E3A00" stroke="none" />
<rect x="142.20000000000002mm" y="0.0mm"
      width="1.8mm" height="23.999999999999996mm"
      fill="#7AFF8B" stroke="none" />
<rect x="144.0mm" y="0.0mm"
      width="1.8mm" height="23.999999999999996mm"
      fill="#4F85F6" stroke="none" />
<rect x="145.8mm" y="0.0mm"
      width="1.8mm" height="23.999999999999996mm"
      fill="#C47800" stroke="none" />
<rect x="147.6mm" y="0.0mm"
      width="1.8mm" height="23.999999999999996mm"
      fill="#B5939C" stroke="none" />
<rect x="149.4mm" y="0.0mm"
      width="1.8mm" height="23.999999999999996mm"
      fill="#60647C" stroke="none" />
<rect x="151.20000000000002mm" y="0.0mm"
      width="1.8mm" height="23.999999999999996mm"
      fill="#20D8D8" stroke="none" />
<rect x="153.0mm" y="0.0mm"
      width="1.8mm" height="23.999999999999996mm"
      fill="#001B2C" stroke="none" />
<rect x="154.8mm" y="0.0mm"
      width="1.8mm" height="23.999999999999996mm"
      fill="#002726" stroke="none" />
<rect x="156.6mm" y="0.0mm"
      width="1.8mm" height="23.999999999999996mm"
      fill="#F8E7E0" stroke="none" />
<rect x="158.4mm" y="0.0mm"
      width="1.8mm" height="23.999999999999996mm"
      fill="#7E6200" stroke="none" />
<rect x="160.20000000000002mm" y="0.0mm"
      width="1.8mm" height="23.999999999999996mm"
      fill="#185D5D" stroke="none" />
<rect x="162.0mm" y="0.0mm"
      width="1.8mm" height="23.999999999999996mm"
      fill="#008B74" stroke="none" />
<rect x="163.8mm" y="0.0mm"
      width="1.8mm" height="23.999999999999996mm"
      fill="#FF3F37" stroke="none" />
<rect x="165.6mm" y="0.0mm"
      width="1.8mm" height="23.999999999999996mm"
      fill="#BC9EFF" stroke="none" />
<rect x="167.4mm" y="0.0mm"
      width="1.8mm" height="23.999999999999996mm"
      fill="#82746D" stroke="none" />
<rect x="169.20000000000002mm" y="0.0mm"
      width="1.8mm" height="23.999999999999996mm"
      fill="#555633" stroke="none" />
<rect x="171.0mm" y="0.0mm"
      width="1.8mm" height="23.999999999999996mm"
      fill="#54BDFF" stroke="none" />
<rect x="172.8mm" y="0.0mm"
      width="1.8mm" height="23.999999999999996mm"
      fill="#CD38A2" stroke="none" />
<rect x="174.6mm" y="0.0mm"
      width="1.8mm" height="23.999999999999996mm"
      fill="#81D3AC" stroke="none" />
<rect x="176.4mm" y="0.0mm"
      width="1.8mm" height="23.999999999999996mm"
      fill="#8A6F80" stroke="none" />
<rect x="178.20000000000002mm" y="0.0mm"
      width="1.8mm" height="23.999999999999996mm"
      fill="#F7B66A" stroke="none" />
</svg>